#N canvas 291 133 885 574 10;
#X obj 177 308 dac~;
#X obj 164 14 r fromApp;
#X obj 235 18 route start stop gain panning open;
#X msg 115 107 start;
#X msg 115 107 start;
#X msg 167 105 stop;
#X obj 36 156 loadbang;
#X msg 42 205 \; pd dsp 1;
#X obj 419 66 list prepend open;
#X obj 421 92 list trim;
#X obj 173 262 pan2~;
#X obj 348 191 readsf~ 1, f 13;
#X floatatom 231 241 5 0 0 0 - - -, f 5;
#X obj 128 233 *~;
#X obj 258 98 / 100;
#X obj 345 88 t b a;
#X msg 348 131 print;
#X obj 347 110 del 100;
#N canvas 0 22 450 278 (subpatch) 0;
#X array wave 100 float 2;
#X coords 0 1 99 -1 200 140 1 0 0;
#X restore 481 216 graph;
#X obj 709 241 soundfiler;
#X obj 665 99 list prepend read -resize;
#X obj 699 178 list append wave;
#X obj 708 209 list trim;
#X msg 354 288 1;
#X msg 393 284 0;
#X obj 353 372 i;
#X obj 379 396 + 25;
#X obj 387 309 t f f;
#X obj 255 522 send toApp;
#X obj 250 452 list prepend progress;
#X obj 254 488 list trim;
#X obj 289 420 / 1000;
#X floatatom 351 425 5 0 0 0 - - -, f 5;
#X obj 349 253 route start stop;
#X obj 708 419 / 44100;
#X obj 716 444 list prepend duration;
#X obj 354 340 metro 25;
#X connect 1 0 2 0;
#X connect 2 0 3 0;
#X connect 2 1 5 0;
#X connect 2 2 14 0;
#X connect 2 3 12 0;
#X connect 2 4 8 0;
#X connect 2 4 20 0;
#X connect 3 0 11 0;
#X connect 3 0 33 0;
#X connect 5 0 11 0;
#X connect 5 0 33 0;
#X connect 6 0 7 0;
#X connect 8 0 9 0;
#X connect 9 0 15 0;
#X connect 10 0 0 0;
#X connect 10 1 0 1;
#X connect 11 0 13 1;
#X connect 11 1 5 0;
#X connect 12 0 10 1;
#X connect 13 0 10 0;
#X connect 14 0 13 0;
#X connect 15 0 17 0;
#X connect 15 1 11 0;
#X connect 16 0 11 0;
#X connect 17 0 16 0;
#X connect 19 0 34 0;
#X connect 20 0 21 0;
#X connect 21 0 22 0;
#X connect 22 0 19 0;
#X connect 23 0 36 0;
#X connect 24 0 27 0;
#X connect 25 0 26 0;
#X connect 25 0 31 0;
#X connect 25 0 32 0;
#X connect 26 0 25 1;
#X connect 27 0 25 1;
#X connect 27 1 36 0;
#X connect 29 0 30 0;
#X connect 30 0 28 0;
#X connect 31 0 29 0;
#X connect 33 0 23 0;
#X connect 33 1 24 0;
#X connect 34 0 35 0;
#X connect 35 0 30 0;
#X connect 36 0 25 0;
