#N canvas 263 281 450 300 10;
#X obj 163 122 cos~;
#X obj 237 143 cos~;
#X obj 68 261 outlet~;
#X obj 67 67 inlet~;
#X obj 83 200 *~;
#X obj 170 195 *~;
#X obj 152 267 outlet~;
#X obj 219 28 inlet~;
#X obj 238 119 -~ 0.25;
#X obj 219 55 *~ 0.125;
#X obj 219 81 +~ 0.125;
#X connect 0 0 4 1;
#X connect 1 0 5 1;
#X connect 3 0 4 0;
#X connect 3 0 5 0;
#X connect 4 0 2 0;
#X connect 5 0 6 0;
#X connect 7 0 9 0;
#X connect 8 0 1 0;
#X connect 9 0 10 0;
#X connect 10 0 8 0;
#X connect 10 0 0 0;
